<?xml version="1.0" standalone="no"?>
<!DOCTYPE svg PUBLIC "-//W3C//DTD SVG 20010904//EN"
 "http://www.w3.org/TR/2001/REC-SVG-20010904/DTD/svg10.dtd">
<svg version="1.0" xmlns="http://www.w3.org/2000/svg"
 width="256.000000pt" height="256.000000pt" viewBox="0 0 256.000000 256.000000"
 preserveAspectRatio="xMidYMid meet">
<metadata>
Created by potrace 1.10, written by Peter Selinger 2001-2011
</metadata>
<g transform="translate(0.000000,256.000000) scale(0.100000,-0.100000)"
fill="#000000" stroke="none">
<path d="M1225 2511 c-127 -21 -258 -74 -392 -160 -84 -53 -116 -81 -94 -81 7
0 25 7 40 15 16 8 48 17 72 21 l44 7 -45 -48 c-25 -25 -61 -55 -81 -65 -73
-38 -115 -116 -106 -197 3 -29 1 -46 -7 -48 -104 -28 -200 -104 -250 -194 -66
-122 -97 -345 -77 -563 33 -362 97 -546 259 -749 79 -98 167 -174 342 -291
158 -107 220 -132 302 -125 146 13 449 206 644 409 146 152 253 324 323 517
27 74 27 79 20 211 -32 553 -120 889 -287 1095 -87 109 -174 158 -392 221 -93
27 -232 38 -315 25z m355 -61 c194 -65 286 -126 365 -242 29 -43 30 -48 11
-48 -7 0 -29 -14 -47 -31 -64 -57 -108 -80 -147 -77 -35 3 -37 5 -35 34 2 17
23 69 48 115 24 46 45 88 45 93 0 9 -14 8 -190 -14 -120 -15 -241 -7 -390 27
-90 20 -144 26 -247 27 -72 1 -129 5 -126 9 9 14 177 94 243 115 98 31 95 31
240 28 121 -3 145 -7 230 -36z m-392 -156 c188 -49 399 -56 570 -18 l34 7 -46
-87 c-25 -48 -46 -96 -46 -106 0 -18 -7 -20 -60 -20 -44 0 -60 4 -60 13 0 8
-14 33 -31 56 -80 111 -257 108 -329 -5 -16 -27 -30 -56 -30 -66 0 -15 -9 -18
-64 -18 -61 0 -64 1 -71 28 -20 82 -96 141 -185 142 l-45 1 55 50 55 50 100
-7 c55 -3 124 -13 153 -20z m-244 -114 c57 -27 108 -108 94 -147 -2 -3 -44 -7
-95 -7 -80 -1 -93 1 -97 17 -6 25 -35 21 -42 -7 -4 -19 -14 -25 -47 -29 -23
-2 -50 -8 -59 -12 -15 -6 -18 -1 -18 29 0 64 47 135 108 163 42 18 111 15 156
-7z m526 0 c46 -24 88 -82 97 -134 l6 -36 -102 0 c-91 0 -102 2 -99 18 2 11
-4 18 -19 20 -18 3 -23 -2 -23 -17 0 -19 -6 -21 -65 -21 -71 0 -73 2 -53 61
38 111 157 161 258 109z m530 -62 l21 -23 -30 -8 c-36 -9 -70 -52 -54 -68 8
-8 15 -2 25 18 7 16 23 29 36 31 19 3 22 -1 22 -32 0 -44 -29 -77 -61 -69 -16
4 -20 2 -17 -8 15 -45 97 4 99 58 1 44 64 -156 93 -297 47 -235 80 -652 56
-726 -23 -73 -90 -215 -140 -294 -158 -256 -418 -480 -716 -617 -70 -32 -166
-36 -226 -9 -55 24 -253 155 -339 224 -118 95 -229 232 -296 367 -109 215
-161 682 -103 925 38 162 116 271 233 326 65 30 71 30 85 0 14 -30 72 -78 113
-91 24 -9 33 -18 35 -39 6 -59 55 -104 123 -113 42 -6 188 23 197 39 12 19 -6
19 -71 -1 -81 -25 -102 -26 -155 -5 -57 23 -84 70 -75 132 8 57 29 98 54 112
28 14 149 12 194 -4 20 -8 39 -10 42 -6 7 11 -11 22 -49 29 -24 5 -32 13 -34
34 l-3 28 63 -3 c47 -2 63 -7 65 -18 9 -72 17 -90 51 -125 47 -48 88 -65 154
-65 106 0 198 95 198 204 0 25 2 26 56 26 36 0 61 -5 70 -15 34 -33 116 -6
194 64 52 47 62 49 90 19z m-960 -123 c0 -12 -13 -15 -57 -15 -32 -1 -68 -6
-81 -14 -32 -17 -62 -65 -62 -100 0 -26 -2 -28 -27 -21 -16 3 -38 13 -50 20
-32 22 -76 83 -70 99 8 21 126 38 295 44 40 2 52 -1 52 -13z m520 -31 c-16
-42 -37 -66 -81 -96 -48 -32 -121 -38 -168 -14 -38 20 -101 92 -101 116 0 19
7 20 180 20 l180 0 -10 -26z"/>
<path d="M1367 1754 c-10 -11 3 -24 24 -24 31 0 22 -16 -28 -53 -106 -77 -203
-107 -342 -107 -102 0 -238 24 -260 45 -12 12 -11 16 14 25 19 7 25 14 18 21
-7 7 -19 6 -36 -2 -34 -15 -36 -51 -4 -67 37 -20 158 -42 235 -42 l72 0 0
-158 0 -158 -114 4 c-98 4 -123 1 -182 -18 -38 -13 -73 -25 -77 -28 -5 -2 11
-25 36 -51 43 -44 107 -136 107 -153 0 -4 -12 -8 -27 -8 -44 0 -89 -34 -103
-75 -24 -72 15 -188 74 -225 48 -29 93 -25 171 14 l67 33 36 -33 c96 -88 269
-50 302 66 14 50 -17 169 -40 155 -6 -4 -4 -21 5 -42 8 -19 15 -55 15 -79 0
-36 -6 -51 -34 -81 -32 -35 -38 -37 -104 -41 -60 -4 -77 -1 -107 18 -19 12
-42 31 -50 43 l-16 22 -58 -32 c-77 -43 -129 -51 -170 -27 -42 25 -74 92 -75
160 -1 68 22 94 88 101 26 3 49 10 52 14 8 14 -47 108 -95 161 -24 27 -42 50
-40 52 21 15 108 25 219 26 108 1 143 -2 175 -16 48 -21 189 -24 252 -6 57 17
151 105 191 180 43 80 64 165 57 224 -6 42 -11 49 -58 80 -29 19 -80 46 -115
61 -71 30 -67 29 -75 21z m141 -95 c77 -44 88 -87 51 -198 -12 -34 -36 -83
-54 -109 -30 -44 -35 -47 -88 -54 -50 -6 -113 -30 -127 -47 -3 -4 -18 -15 -34
-25 -30 -19 -80 -17 -131 6 l-25 11 0 143 0 143 38 10 c20 6 43 11 50 11 26 0
158 68 202 103 25 20 50 37 55 37 6 0 34 -14 63 -31z m-84 -417 c-36 -24 -151
-59 -161 -48 -2 2 12 17 32 32 35 26 140 57 158 47 5 -3 -9 -17 -29 -31z"/>
</g>
</svg>
